<svg width="101" height="101" xmlns="http://www.w3.org/2000/svg"><g fill="none" fill-rule="evenodd"><g fill="#F2F1EE"><path d="M50.5 1.683C23.54 1.683 1.683 23.54 1.683 50.5S23.54 99.317 50.5 99.317 99.317 77.46 99.317 50.5 77.46 1.683 50.5 1.683zM82.483 45.45v31.983H18.517V33.667h18.516v-10.1h26.934v10.1h18.516V45.45z" fill-rule="nonzero"/><path d="M28.617 45.45v5.05h6.733V40.4h-6.733zm43.766 0V40.4H65.65v10.1h6.733z"/></g><path d="M50.5 0C22.61 0 0 22.61 0 50.5S22.61 101 50.5 101 101 78.39 101 50.5C100.969 22.623 78.377.031 50.5 0zm0 97.633c-26.03 0-47.133-21.102-47.133-47.133 0-26.03 21.102-47.133 47.133-47.133 26.03 0 47.133 21.102 47.133 47.133-.03 26.019-21.114 47.104-47.133 47.133z" fill="#1E6574" fill-rule="nonzero"/><path d="M82.483 31.983H65.65v-8.416c0-.93-.754-1.684-1.683-1.684H37.033c-.93 0-1.683.754-1.683 1.684v8.416H18.517c-.93 0-1.684.754-1.684 1.684v43.766c0 .93.754 1.684 1.684 1.684h63.966c.93 0 1.684-.754 1.684-1.684V33.667c0-.93-.754-1.684-1.684-1.684zM38.717 25.25h23.566v6.733H38.717V25.25zM80.8 35.35v8.417h-6.733V40.4c0-.93-.754-1.683-1.684-1.683H65.65c-.93 0-1.683.753-1.683 1.683v3.367H37.033V40.4c0-.93-.753-1.683-1.683-1.683h-6.733c-.93 0-1.684.753-1.684 1.683v3.367H20.2V35.35h60.6zM67.333 47.133H70.7v1.684h-3.367v-1.684zm0-3.366v-1.684H70.7v1.684h-3.367zM30.3 47.133h3.367v1.684H30.3v-1.684zm0-3.366v-1.684h3.367v1.684H30.3zM20.2 75.75V47.133h6.733V50.5c0 .93.754 1.683 1.684 1.683h6.733c.93 0 1.683-.753 1.683-1.683v-3.367h26.934V50.5c0 .93.753 1.683 1.683 1.683h6.733c.93 0 1.684-.753 1.684-1.683v-3.367H80.8V75.75H20.2z" fill="#1E6574" fill-rule="nonzero"/></g></svg>