<svg width="101" height="101" xmlns="http://www.w3.org/2000/svg"><g fill="none" fill-rule="evenodd"><path d="M50.5 1.683C23.54 1.683 1.683 23.54 1.683 50.5S23.54 99.317 50.5 99.317 99.317 77.46 99.317 50.5 77.46 1.683 50.5 1.683zM67.333 80.8H33.667v-6.733h33.666V80.8zm0-53.867h-3.366v11.784c0 .404-.047.796-.083 1.191A13.386 13.386 0 0 1 56.997 50.5a13.406 13.406 0 0 1 6.97 11.783v6.263a9.403 9.403 0 0 0-2.357-.27c-3.72 0-3.72 1.481-7.424 1.481-3.702 0-3.702-1.48-7.406-1.48-3.704 0-3.704 1.48-7.39 1.48a9.403 9.403 0 0 1-2.357-.27v-7.204a13.406 13.406 0 0 1 6.97-11.783 13.391 13.391 0 0 1-6.774-9.595 13.558 13.558 0 0 1-.196-2.188V26.933h-3.366V20.2h33.666v6.733z" fill="#F2F1EE" fill-rule="nonzero"/><g fill="#1E6574"><path d="M50.5 0C22.61 0 0 22.61 0 50.5S22.61 101 50.5 101 101 78.39 101 50.5C100.969 22.623 78.377.031 50.5 0zm0 97.633c-26.03 0-47.133-21.102-47.133-47.133 0-26.03 21.102-47.133 47.133-47.133 26.03 0 47.133 21.102 47.133 47.133-.03 26.019-21.114 47.104-47.133 47.133z" fill-rule="nonzero"/><path d="M47.133 52.183H50.5v3.367h-3.367zm3.367 5.05h3.367V60.6H50.5z"/><path d="M67.333 18.517H33.667c-.93 0-1.684.753-1.684 1.683v6.733c0 .93.754 1.684 1.684 1.684h1.683v10.1A15.107 15.107 0 0 0 40.983 50.5a15.107 15.107 0 0 0-5.633 11.783v10.1h-1.683c-.93 0-1.684.754-1.684 1.684V80.8c0 .93.754 1.683 1.684 1.683h33.666c.93 0 1.684-.753 1.684-1.683v-6.733c0-.93-.754-1.684-1.684-1.684H65.65v-10.1A15.107 15.107 0 0 0 60.017 50.5a15.107 15.107 0 0 0 5.633-11.783v-10.1h1.683c.93 0 1.684-.754 1.684-1.684V20.2c0-.93-.754-1.683-1.684-1.683zm-1.683 60.6h-30.3V75.75h30.3v3.367zm-26.933-6.734v-.978c.225.01.435.036.673.036a10.133 10.133 0 0 0 4.313-.86 7.93 7.93 0 0 1 6.154 0 11.326 11.326 0 0 0 8.655 0 6.971 6.971 0 0 1 3.098-.623c.248 0 .47 0 .673.021v2.404H38.717zm17.474-23.36a1.683 1.683 0 0 0 0 2.955 11.73 11.73 0 0 1 6.092 10.305v4.345c-.225-.01-.435-.035-.673-.035a10.263 10.263 0 0 0-4.346.861 7.938 7.938 0 0 1-6.155 0 11.31 11.31 0 0 0-8.66 0 6.889 6.889 0 0 1-3.06.618c-.247 0-.468 0-.672-.022v-5.767a11.73 11.73 0 0 1 6.092-10.305 1.683 1.683 0 0 0 0-2.956 11.672 11.672 0 0 1-5.331-6.2 10.099 10.099 0 0 0 4.225-.858 7.93 7.93 0 0 1 6.154 0 11.326 11.326 0 0 0 8.655 0 6.971 6.971 0 0 1 3.098-.623c.126 0 .23.012.352.017a11.692 11.692 0 0 1-5.77 7.664zm6.092-11.012c-.225-.011-.434-.035-.673-.035a10.263 10.263 0 0 0-4.346.861 7.938 7.938 0 0 1-6.155 0 11.31 11.31 0 0 0-8.66 0 6.889 6.889 0 0 1-3.06.619c-.23 0-.422-.015-.624-.03-.015-.234-.048-.469-.048-.71v-10.1h23.566v9.395zM65.65 25.25h-30.3v-3.367h30.3v3.367z" fill-rule="nonzero"/><path d="M47.133 60.6H50.5v3.367h-3.367z"/></g></g></svg>