<svg width="101" height="101" xmlns="http://www.w3.org/2000/svg"><g fill="none" fill-rule="evenodd"><path d="M50.5 1.683C23.54 1.683 1.683 23.54 1.683 50.5S23.54 99.317 50.5 99.317 99.317 77.46 99.317 50.5 77.46 1.683 50.5 1.683zM75.75 75.75l-16.699-1.515c-11.134 4.013-23.563-.243-29.9-10.24-6.338-9.995-4.887-23.05 3.492-31.41 8.378-8.36 21.437-9.784 31.419-3.423 9.982 6.36 14.21 18.797 10.173 29.923L75.75 75.75z" fill="#F2F1EE" fill-rule="nonzero"/><g fill="#1E6574"><path d="M50.5 0C22.61 0 0 22.61 0 50.5S22.61 101 50.5 101 101 78.39 101 50.5C100.969 22.623 78.377.031 50.5 0zm0 97.633c-26.03 0-47.133-21.102-47.133-47.133 0-26.03 21.102-47.133 47.133-47.133 26.03 0 47.133 21.102 47.133 47.133-.03 26.019-21.114 47.104-47.133 47.133z" fill-rule="nonzero"/><path d="M50.5 23.567a26.932 26.932 0 0 0-24.728 16.1 26.932 26.932 0 0 0 33.492 36.277l16.327 1.483h.152a1.685 1.685 0 0 0 1.684-1.837l-1.481-16.294a26.661 26.661 0 0 0 1.487-8.796C77.416 35.633 65.367 23.584 50.5 23.567zm23.398 50.331l-14.695-1.346a1.6 1.6 0 0 0-.72.09A23.553 23.553 0 1 1 74.067 50.5a23.297 23.297 0 0 1-1.412 8.007 1.682 1.682 0 0 0-.097.73l1.34 14.661z" fill-rule="nonzero"/><path d="M43.767 58.22l-5.543-5.544-2.38 2.38 6.732 6.734a1.684 1.684 0 0 0 2.38 0l20.2-20.2-2.38-2.38-19.01 19.01z"/></g></g></svg>