<svg width="101" height="101" xmlns="http://www.w3.org/2000/svg"><g fill="none"><path d="M50.5 1.683C23.54 1.683 1.683 23.54 1.683 50.5S23.54 99.317 50.5 99.317 99.317 77.46 99.317 50.5 77.46 1.683 50.5 1.683zm0 18.517c7.438 0 13.467 6.029 13.467 13.467 0 7.437-6.03 13.466-13.467 13.466-7.438 0-13.467-6.029-13.467-13.466 0-7.438 6.03-13.467 13.467-13.467zm28.617 58.917H21.883v-5.05c0-11.157 9.044-20.2 20.2-20.2h16.834c11.156 0 20.2 9.043 20.2 20.2v5.05z" fill="#F2F1EE"/><g fill="#1E6574"><path d="M50.5 0C22.61 0 0 22.61 0 50.5S22.61 101 50.5 101 101 78.39 101 50.5C100.969 22.623 78.377.031 50.5 0zm0 97.633c-26.03 0-47.133-21.102-47.133-47.133 0-26.03 21.102-47.133 47.133-47.133 26.03 0 47.133 21.102 47.133 47.133-.03 26.019-21.114 47.104-47.133 47.133z"/><path d="M50.5 48.817c8.367 0 15.15-6.783 15.15-15.15 0-8.368-6.783-15.15-15.15-15.15s-15.15 6.782-15.15 15.15c.01 8.363 6.787 15.14 15.15 15.15zm0-26.934c6.508 0 11.783 5.276 11.783 11.784 0 6.508-5.275 11.783-11.783 11.783-6.508 0-11.783-5.275-11.783-11.783.007-6.505 5.278-11.776 11.783-11.784zm8.417 30.3H42.083c-12.08.014-21.869 9.804-21.883 21.884v5.05c0 .93.754 1.683 1.683 1.683h57.234c.93 0 1.683-.754 1.683-1.683v-5.05c-.014-12.08-9.803-21.87-21.883-21.884zm18.516 25.25h-8.416v-5.05H65.65v5.05h-30.3v-5.05h-3.367v5.05h-8.416v-3.366c.012-10.222 8.295-18.505 18.516-18.517h16.834c10.221.012 18.504 8.295 18.516 18.517v3.366z"/></g></g></svg>