<?xml version="1.0" encoding="UTF-8"?><svg width="121" height="484" viewBox="0 0 121 484" xmlns="http://www.w3.org/2000/svg" xmlns:xlink="http://www.w3.org/1999/xlink"><svg width="121" height="121" viewBox="-10 -10 121 121" id="1363631" xmlns="http://www.w3.org/2000/svg"><g fill="none" fill-rule="evenodd"><g fill="#F2F1EE"><path d="M50.5 1.683C23.54 1.683 1.683 23.54 1.683 50.5S23.54 99.317 50.5 99.317 99.317 77.46 99.317 50.5 77.46 1.683 50.5 1.683zM82.483 45.45v31.983H18.517V33.667h18.516v-10.1h26.934v10.1h18.516V45.45z" fill-rule="nonzero"/><path d="M28.617 45.45v5.05h6.733V40.4h-6.733zM72.383 45.45V40.4H65.65v10.1h6.733z"/></g><path d="M50.5 0C22.61 0 0 22.61 0 50.5S22.61 101 50.5 101 101 78.39 101 50.5C100.969 22.623 78.377.031 50.5 0zm0 97.633c-26.03 0-47.133-21.102-47.133-47.133 0-26.03 21.102-47.133 47.133-47.133 26.03 0 47.133 21.102 47.133 47.133-.03 26.019-21.114 47.104-47.133 47.133z" fill="#1E6574" fill-rule="nonzero"/><path d="M82.483 31.983H65.65v-8.416c0-.93-.754-1.684-1.683-1.684H37.033c-.93 0-1.683.754-1.683 1.684v8.416H18.517c-.93 0-1.684.754-1.684 1.684v43.766c0 .93.754 1.684 1.684 1.684h63.966c.93 0 1.684-.754 1.684-1.684V33.667c0-.93-.754-1.684-1.684-1.684zM38.717 25.25h23.566v6.733H38.717V25.25zM80.8 35.35v8.417h-6.733V40.4c0-.93-.754-1.683-1.684-1.683H65.65c-.93 0-1.683.753-1.683 1.683v3.367H37.033V40.4c0-.93-.753-1.683-1.683-1.683h-6.733c-.93 0-1.684.753-1.684 1.683v3.367H20.2V35.35h60.6zM67.333 47.133H70.7v1.684h-3.367v-1.684zm0-3.366v-1.684H70.7v1.684h-3.367zM30.3 47.133h3.367v1.684H30.3v-1.684zm0-3.366v-1.684h3.367v1.684H30.3zM20.2 75.75V47.133h6.733V50.5c0 .93.754 1.683 1.684 1.683h6.733c.93 0 1.683-.753 1.683-1.683v-3.367h26.934V50.5c0 .93.753 1.683 1.683 1.683h6.733c.93 0 1.684-.753 1.684-1.683v-3.367H80.8V75.75H20.2z" fill="#1E6574" fill-rule="nonzero"/></g></svg><svg width="121" height="121" viewBox="-10 -10 121 121" id="1363647" y="121" xmlns="http://www.w3.org/2000/svg"><g fill="none" fill-rule="evenodd"><path d="M50.5 1.683C23.54 1.683 1.683 23.54 1.683 50.5S23.54 99.317 50.5 99.317 99.317 77.46 99.317 50.5 77.46 1.683 50.5 1.683zM75.75 75.75l-16.699-1.515c-11.134 4.013-23.563-.243-29.9-10.24-6.338-9.995-4.887-23.05 3.492-31.41 8.378-8.36 21.437-9.784 31.419-3.423 9.982 6.36 14.21 18.797 10.173 29.923L75.75 75.75z" fill="#F2F1EE" fill-rule="nonzero"/><g fill="#1E6574"><path d="M50.5 0C22.61 0 0 22.61 0 50.5S22.61 101 50.5 101 101 78.39 101 50.5C100.969 22.623 78.377.031 50.5 0zm0 97.633c-26.03 0-47.133-21.102-47.133-47.133 0-26.03 21.102-47.133 47.133-47.133 26.03 0 47.133 21.102 47.133 47.133-.03 26.019-21.114 47.104-47.133 47.133z" fill-rule="nonzero"/><path d="M50.5 23.567a26.932 26.932 0 0 0-24.728 16.1 26.932 26.932 0 0 0 33.492 36.277l16.327 1.483h.152a1.685 1.685 0 0 0 1.684-1.837l-1.481-16.294a26.661 26.661 0 0 0 1.487-8.796C77.416 35.633 65.367 23.584 50.5 23.567zm23.398 50.331l-14.695-1.346a1.6 1.6 0 0 0-.72.09A23.553 23.553 0 1 1 74.067 50.5a23.297 23.297 0 0 1-1.412 8.007 1.682 1.682 0 0 0-.097.73l1.34 14.661z" fill-rule="nonzero"/><path d="M43.767 58.22l-5.543-5.544-2.38 2.38 6.732 6.734a1.684 1.684 0 0 0 2.38 0l20.2-20.2-2.38-2.38-19.01 19.01z"/></g></g></svg><svg width="121" height="121" viewBox="-10 -10 121 121" id="1363655" y="242" xmlns="http://www.w3.org/2000/svg"><g fill-rule="nonzero" fill="none"><path d="M50.5 1.683C23.54 1.683 1.683 23.54 1.683 50.5S23.54 99.317 50.5 99.317 99.317 77.46 99.317 50.5 77.46 1.683 50.5 1.683zm0 18.517c7.438 0 13.467 6.029 13.467 13.467 0 7.437-6.03 13.466-13.467 13.466-7.438 0-13.467-6.029-13.467-13.466 0-7.438 6.03-13.467 13.467-13.467zm28.617 58.917H21.883v-5.05c0-11.157 9.044-20.2 20.2-20.2h16.834c11.156 0 20.2 9.043 20.2 20.2v5.05z" fill="#F2F1EE"/><g fill="#1E6574"><path d="M50.5 0C22.61 0 0 22.61 0 50.5S22.61 101 50.5 101 101 78.39 101 50.5C100.969 22.623 78.377.031 50.5 0zm0 97.633c-26.03 0-47.133-21.102-47.133-47.133 0-26.03 21.102-47.133 47.133-47.133 26.03 0 47.133 21.102 47.133 47.133-.03 26.019-21.114 47.104-47.133 47.133z"/><path d="M50.5 48.817c8.367 0 15.15-6.783 15.15-15.15 0-8.368-6.783-15.15-15.15-15.15s-15.15 6.782-15.15 15.15c.01 8.363 6.787 15.14 15.15 15.15zm0-26.934c6.508 0 11.783 5.276 11.783 11.784 0 6.508-5.275 11.783-11.783 11.783-6.508 0-11.783-5.275-11.783-11.783.007-6.505 5.278-11.776 11.783-11.784zM58.917 52.183H42.083c-12.08.014-21.869 9.804-21.883 21.884v5.05c0 .93.754 1.683 1.683 1.683h57.234c.93 0 1.683-.754 1.683-1.683v-5.05c-.014-12.08-9.803-21.87-21.883-21.884zm18.516 25.25h-8.416v-5.05H65.65v5.05h-30.3v-5.05h-3.367v5.05h-8.416v-3.366c.012-10.222 8.295-18.505 18.516-18.517h16.834c10.221.012 18.504 8.295 18.516 18.517v3.366z"/></g></g></svg><svg width="121" height="121" viewBox="-10 -10 121 121" id="1363664" y="363" xmlns="http://www.w3.org/2000/svg"><g fill="none" fill-rule="evenodd"><path d="M50.5 1.683C23.54 1.683 1.683 23.54 1.683 50.5S23.54 99.317 50.5 99.317 99.317 77.46 99.317 50.5 77.46 1.683 50.5 1.683zM67.333 80.8H33.667v-6.733h33.666V80.8zm0-53.867h-3.366v11.784c0 .404-.047.796-.083 1.191A13.386 13.386 0 0 1 56.997 50.5a13.406 13.406 0 0 1 6.97 11.783v6.263a9.403 9.403 0 0 0-2.357-.27c-3.72 0-3.72 1.481-7.424 1.481-3.702 0-3.702-1.48-7.406-1.48-3.704 0-3.704 1.48-7.39 1.48a9.403 9.403 0 0 1-2.357-.27v-7.204a13.406 13.406 0 0 1 6.97-11.783 13.391 13.391 0 0 1-6.774-9.595 13.558 13.558 0 0 1-.196-2.188V26.933h-3.366V20.2h33.666v6.733z" fill="#F2F1EE" fill-rule="nonzero"/><g fill="#1E6574"><path d="M50.5 0C22.61 0 0 22.61 0 50.5S22.61 101 50.5 101 101 78.39 101 50.5C100.969 22.623 78.377.031 50.5 0zm0 97.633c-26.03 0-47.133-21.102-47.133-47.133 0-26.03 21.102-47.133 47.133-47.133 26.03 0 47.133 21.102 47.133 47.133-.03 26.019-21.114 47.104-47.133 47.133z" fill-rule="nonzero"/><path d="M47.133 52.183H50.5v3.367h-3.367zM50.5 57.233h3.367V60.6H50.5z"/><path d="M67.333 18.517H33.667c-.93 0-1.684.753-1.684 1.683v6.733c0 .93.754 1.684 1.684 1.684h1.683v10.1A15.107 15.107 0 0 0 40.983 50.5a15.107 15.107 0 0 0-5.633 11.783v10.1h-1.683c-.93 0-1.684.754-1.684 1.684V80.8c0 .93.754 1.683 1.684 1.683h33.666c.93 0 1.684-.753 1.684-1.683v-6.733c0-.93-.754-1.684-1.684-1.684H65.65v-10.1A15.107 15.107 0 0 0 60.017 50.5a15.107 15.107 0 0 0 5.633-11.783v-10.1h1.683c.93 0 1.684-.754 1.684-1.684V20.2c0-.93-.754-1.683-1.684-1.683zm-1.683 60.6h-30.3V75.75h30.3v3.367zm-26.933-6.734v-.978c.225.01.435.036.673.036a10.133 10.133 0 0 0 4.313-.86 7.93 7.93 0 0 1 6.154 0 11.326 11.326 0 0 0 8.655 0 6.971 6.971 0 0 1 3.098-.623c.248 0 .47 0 .673.021v2.404H38.717zm17.474-23.36a1.683 1.683 0 0 0 0 2.955 11.73 11.73 0 0 1 6.092 10.305v4.345c-.225-.01-.435-.035-.673-.035a10.263 10.263 0 0 0-4.346.861 7.938 7.938 0 0 1-6.155 0 11.31 11.31 0 0 0-8.66 0 6.889 6.889 0 0 1-3.06.618c-.247 0-.468 0-.672-.022v-5.767a11.73 11.73 0 0 1 6.092-10.305 1.683 1.683 0 0 0 0-2.956 11.672 11.672 0 0 1-5.331-6.2 10.099 10.099 0 0 0 4.225-.858 7.93 7.93 0 0 1 6.154 0 11.326 11.326 0 0 0 8.655 0 6.971 6.971 0 0 1 3.098-.623c.126 0 .23.012.352.017a11.692 11.692 0 0 1-5.77 7.664zm6.092-11.012c-.225-.011-.434-.035-.673-.035a10.263 10.263 0 0 0-4.346.861 7.938 7.938 0 0 1-6.155 0 11.31 11.31 0 0 0-8.66 0 6.889 6.889 0 0 1-3.06.619c-.23 0-.422-.015-.624-.03-.015-.234-.048-.469-.048-.71v-10.1h23.566v9.395zM65.65 25.25h-30.3v-3.367h30.3v3.367z" fill-rule="nonzero"/><path d="M47.133 60.6H50.5v3.367h-3.367z"/></g></g></svg></svg>